<svg width="1920" height="1080" viewBox="0 0 1920 1080" fill="none" xmlns="http://www.w3.org/2000/svg">
<g clip-path="url(#clip0_1_46)">
<path fill-rule="evenodd" clip-rule="evenodd" d="M1460.2 1579.29L1332.65 1706.84L601.922 1741.38L636.465 1010.65L-94.2675 1045.19L-59.7238 314.461L67.8222 186.915L311.4 175.401L322.914 -68.1769L450.46 -195.723L1181.19 -230.267L1146.65 500.466L1877.38 465.922L1842.84 1196.66L1715.29 1324.2L1471.72 1335.72L1460.2 1579.29ZM427.431 291.432L62.0649 308.704L33.2786 917.648L642.223 888.861L659.494 523.495L1024.86 506.223L1053.65 -102.721L444.703 -73.9342L427.431 291.432ZM775.526 639.527L764.011 883.104L1007.59 871.59L1019.1 628.012L775.526 639.527ZM1123.62 987.621L758.254 1004.89L729.468 1613.84L1338.41 1585.05L1355.68 1219.68L1721.05 1202.41L1749.84 593.468L1140.89 622.255L1123.62 987.621ZM-314.816 569.553L-343.602 1178.5L-708.969 1195.77L-592.937 1311.8L-349.36 1300.29L-360.874 1543.86L-244.843 1659.9L-227.571 1294.53L381.373 1265.74L352.587 1874.69L-12.7796 1891.96L103.252 2007.99L346.83 1996.48L335.315 2240.05L451.346 2356.08L468.618 1990.72L1077.56 1961.93L1205.11 1834.39L474.376 1868.93L508.919 1138.2L-221.814 1172.74L-187.27 442.007L-314.816 569.553ZM705.553 -450.815L1314.5 -479.602L1331.77 -844.968L1447.8 -728.936L1436.29 -485.359L1679.86 -496.873L1795.89 -380.842L1430.53 -363.57L1401.74 245.374L2010.69 216.587L2027.96 -148.779L2143.99 -32.7474L2132.47 210.83L2376.05 199.316L2492.08 315.347L2126.72 332.619L2097.93 941.563L1970.38 1069.11L2004.93 338.376L1274.2 372.92L1308.74 -357.813L578.006 -323.269L705.553 -450.815Z" fill="#171717" fill-opacity="0.04"/>
</g>
<defs>
<clipPath id="clip0_1_46">
<rect width="1969.12" height="2886.04" fill="white" transform="matrix(0.707107 0.707107 0.707107 -0.707107 -825 1079.74)"/>
</clipPath>
</defs>
</svg>
