<?xml version="1.0" standalone="no"?>
<!DOCTYPE svg PUBLIC "-//W3C//DTD SVG 20010904//EN"
 "http://www.w3.org/TR/2001/REC-SVG-20010904/DTD/svg10.dtd">
<svg version="1.0" xmlns="http://www.w3.org/2000/svg"
 width="2048.000000pt" height="2048.000000pt" viewBox="0 0 2048.000000 2048.000000"
 preserveAspectRatio="xMidYMid meet">
<metadata>
Created by potrace 1.11, written by Peter Selinger 2001-2013
</metadata>
<g transform="translate(0.000000,2048.000000) scale(0.100000,-0.100000)"
fill="#000000" stroke="none">
<path d="M9848 19875 c-1 -1 -57 -6 -123 -9 -136 -7 -184 -10 -425 -32 -80 -7
-154 -14 -185 -19 -16 -2 -52 -7 -80 -10 -67 -7 -135 -16 -165 -21 -14 -2 -43
-7 -65 -9 -22 -3 -47 -7 -55 -10 -8 -2 -40 -7 -70 -10 -30 -4 -57 -8 -60 -10
-3 -2 -26 -6 -50 -10 -25 -3 -52 -8 -60 -10 -8 -2 -31 -7 -50 -10 -36 -5 -66
-11 -110 -21 -14 -3 -38 -8 -55 -10 -71 -13 -351 -78 -474 -110 -508 -133
-1060 -325 -1476 -514 -22 -10 -83 -37 -135 -61 -93 -41 -461 -224 -510 -253
-14 -8 -65 -37 -115 -64 -126 -69 -214 -118 -280 -159 -11 -7 -40 -24 -65 -39
-47 -28 -74 -45 -260 -165 -99 -63 -222 -147 -283 -191 -9 -7 -49 -35 -88 -63
-72 -51 -430 -324 -439 -334 -3 -4 -30 -26 -60 -51 -30 -25 -57 -47 -60 -50
-3 -3 -32 -27 -65 -55 -33 -27 -78 -66 -100 -87 -22 -20 -49 -45 -61 -55 -209
-181 -581 -553 -779 -778 -38 -44 -72 -82 -75 -85 -12 -12 -131 -152 -191
-225 -135 -164 -462 -600 -504 -673 -5 -10 -21 -33 -35 -52 -14 -19 -29 -42
-35 -51 -5 -10 -50 -79 -99 -155 -48 -76 -93 -149 -99 -161 -6 -13 -14 -23
-19 -23 -4 0 -8 -4 -8 -10 0 -5 -24 -49 -53 -97 -243 -401 -520 -980 -710
-1483 -130 -345 -304 -910 -352 -1150 -2 -8 -10 -42 -18 -75 -15 -58 -91 -429
-101 -490 -2 -16 -14 -86 -25 -155 -11 -69 -23 -145 -26 -170 -3 -25 -8 -56
-10 -70 -3 -14 -7 -45 -10 -70 -2 -25 -6 -63 -9 -85 -3 -22 -7 -69 -11 -105
-3 -36 -8 -81 -10 -100 -9 -68 -19 -197 -33 -430 -15 -251 -7 -977 13 -1191 2
-24 6 -82 10 -129 3 -47 8 -104 10 -127 3 -24 7 -64 10 -90 3 -27 8 -67 10
-90 10 -85 15 -128 19 -149 2 -12 7 -45 11 -75 3 -30 10 -79 15 -109 10 -59
20 -123 24 -155 2 -11 7 -38 11 -60 4 -22 9 -47 10 -55 4 -19 34 -178 39 -206
14 -71 49 -228 62 -279 9 -33 18 -71 21 -85 10 -57 73 -288 135 -495 82 -275
242 -718 339 -940 4 -11 26 -60 47 -110 146 -340 396 -826 565 -1099 198 -320
245 -393 366 -566 82 -117 285 -392 315 -427 6 -7 16 -18 21 -25 93 -119 140
-175 244 -298 69 -80 145 -167 171 -195 25 -27 82 -88 125 -135 202 -218 503
-506 735 -705 58 -50 114 -98 125 -109 11 -10 36 -30 55 -44 19 -15 37 -29 40
-32 39 -43 456 -354 640 -478 74 -51 141 -97 148 -103 7 -6 23 -16 35 -23 12
-6 54 -32 92 -57 736 -477 1666 -892 2560 -1142 172 -49 481 -125 565 -141 14
-2 93 -18 175 -35 83 -16 166 -32 185 -35 19 -3 62 -10 95 -16 33 -6 78 -13
100 -16 22 -3 63 -9 90 -14 28 -5 73 -12 100 -15 56 -6 125 -14 170 -20 17 -2
59 -7 95 -10 36 -3 85 -8 110 -11 25 -2 72 -7 105 -9 33 -3 80 -7 105 -10 269
-27 1109 -27 1405 0 28 3 82 7 120 10 129 9 265 23 385 40 19 3 58 7 85 10 87
9 378 57 525 86 52 10 113 21 135 25 22 3 43 8 46 10 3 2 20 6 37 9 117 20
512 120 692 175 58 18 119 35 135 40 150 37 685 235 983 364 187 81 627 295
772 377 198 111 361 206 397 230 23 16 44 29 47 29 8 0 279 177 421 275 115
79 532 388 545 404 3 3 28 24 55 46 28 22 61 50 75 61 14 12 77 66 140 120 63
53 120 102 126 108 6 6 53 49 105 96 171 155 520 509 674 684 33 37 69 78 80
90 11 12 40 46 65 76 25 30 61 73 80 96 61 73 72 86 185 231 60 77 117 151
125 163 8 13 29 40 45 61 17 21 46 60 65 86 48 66 340 502 340 508 0 3 19 35
43 72 49 78 185 312 246 423 44 80 275 542 303 607 9 21 29 65 43 98 15 33 37
83 50 110 121 269 310 801 409 1155 59 213 126 481 150 600 2 14 14 70 26 125
23 110 92 511 92 535 0 8 4 37 9 63 5 27 11 74 14 106 3 32 7 73 10 92 16 129
20 171 31 304 3 44 8 96 9 115 27 295 27 1107 0 1406 -2 27 -7 83 -10 124 -3
41 -8 89 -10 105 -2 17 -7 59 -10 95 -3 36 -8 79 -10 95 -2 17 -7 55 -10 85
-4 30 -9 64 -11 75 -1 11 -6 42 -9 69 -4 44 -16 120 -29 196 -3 14 -7 43 -11
64 -3 21 -7 48 -10 60 -3 12 -7 32 -9 46 -5 29 -44 235 -50 265 -28 130 -39
179 -61 267 -25 99 -30 117 -39 164 -10 48 -110 389 -158 539 -29 88 -53 162
-53 165 -1 3 -4 12 -8 20 -3 8 -26 74 -52 145 -49 136 -167 434 -206 520 -12
28 -23 52 -23 55 -5 30 -270 572 -362 740 -179 328 -374 639 -619 990 -67 96
-313 420 -353 465 -10 11 -61 72 -112 135 -52 63 -101 122 -110 130 -8 8 -33
35 -54 60 -247 283 -613 645 -925 916 -19 16 -39 34 -45 39 -6 6 -36 30 -66
55 -67 55 -99 82 -114 95 -6 6 -27 22 -48 37 -20 15 -42 34 -50 41 -7 7 -31
26 -53 42 -22 17 -42 32 -45 35 -25 27 -536 390 -549 390 -4 0 -16 8 -27 18
-22 20 -131 92 -139 92 -3 0 -11 5 -18 10 -79 67 -597 357 -928 519 -184 90
-575 265 -614 275 -5 2 -23 9 -40 15 -83 35 -361 136 -520 189 -278 93 -515
160 -900 252 -113 28 -465 96 -580 114 -16 2 -61 10 -100 16 -38 7 -77 12 -85
12 -8 0 -35 4 -60 8 -25 5 -74 11 -110 15 -36 4 -78 9 -95 11 -16 2 -52 6 -80
9 -27 3 -77 8 -109 11 -78 8 -122 11 -241 19 -55 4 -118 9 -140 12 -47 5 -932
13 -937 8z"/>
</g>
</svg>
